if(_typeface_js&&_typeface_js.loadFace)_typeface_js.loadFace({"glyphs":{"S":{"x_min":-53.578125,"x_max":956.296875,"ha":768,"o":"m 21 48 q -42 167 -30 103 q -53 291 -53 231 q -47 358 -53 351 q -32 371 -40 366 q 2 386 -18 381 q 181 215 31 256 q 279 202 229 202 q 366 210 328 202 q 433 237 404 219 q 495 360 495 278 q 445 499 495 422 q 400 566 424 533 q 354 634 375 600 q 305 770 305 714 q 321 865 305 827 q 364 932 337 902 q 428 990 392 963 q 509 1034 465 1018 q 696 1065 597 1065 q 845 1041 790 1065 q 928 986 900 1017 q 956 935 956 954 q 950 902 956 915 q 934 876 944 889 q 894 836 914 849 q 741 929 847 910 q 677 935 716 935 q 600 926 638 935 q 532 899 561 916 q 477 800 477 861 q 494 739 477 767 q 540 687 510 712 q 604 624 569 662 q 674 541 640 586 q 756 336 756 437 q 718 160 756 234 q 616 36 680 86 q 291 -64 487 -64 q 21 48 126 -64 "},"\u0000":{"x_min":0,"x_max":0,"ha":695},"/":{"x_min":9.5,"x_max":910.859375,"ha":781,"o":"m 858 1093 q 910 1064 910 1076 q 891 1011 910 1052 q 836 908 871 970 q 756 769 802 847 q 657 606 710 691 q 548 432 604 520 q 436 260 491 343 q 330 104 381 177 q 237 -23 279 31 q 124 -141 147 -141 q 30 -100 87 -141 q 9 -82 15 -90 q 470 512 117 13 q 766 945 685 816 q 858 1093 848 1074 "},"K":{"x_min":-244.84375,"x_max":1013.265625,"ha":859,"o":"m 896 1062 q 987 977 990 1047 q 714 727 987 902 q 459 581 604 656 q 502 505 483 557 q 533 418 522 453 q 558 349 544 383 q 588 285 571 316 q 626 231 604 255 q 760 213 673 180 q 878 259 811 213 q 982 363 943 304 q 1013 338 1013 365 q 974 246 1013 307 q 903 149 936 186 q 832 81 870 112 q 752 27 794 50 q 584 -21 661 -21 q 462 -3 507 -21 q 386 44 417 14 q 338 114 356 74 q 310 197 320 153 q 295 287 300 241 q 286 374 290 333 q 257 510 276 475 q 202 486 223 496 q 153 357 178 419 q 107 239 128 295 q 64 134 85 182 q 24 51 44 86 q -49 -21 -16 -21 q -210 9 -122 -21 q -244 25 -234 17 q -136 177 -201 64 q -26 372 -71 289 q 63 540 18 455 q 153 708 109 626 q 236 859 198 791 q 362 1048 324 1013 q 464 1048 383 1068 q 484 1034 475 1043 q 296 665 407 929 q 678 839 499 732 q 859 991 796 923 q 896 1062 888 1028 "},"7":{"x_min":-106.484375,"x_max":751.46875,"ha":551,"o":"m 99 765 q 38 848 38 790 q 105 914 38 884 q 274 935 172 935 q 671 908 511 935 q 731 893 709 902 q 751 807 747 886 q 751 792 751 800 q 404 556 552 717 q 217 252 281 421 q 172 47 172 136 q 176 7 172 25 q 84 -1 111 -1 q 29 -1 57 -1 q -33 12 1 0 q -106 119 -106 38 q 12 392 -106 242 q 298 650 119 529 q 607 824 436 758 q 366 836 475 836 q 99 765 120 840 "},"d":{"x_min":25.765625,"x_max":971.890625,"ha":812,"o":"m 727 215 q 834 267 771 220 q 935 363 889 308 q 965 337 967 366 q 937 267 965 314 q 883 185 910 220 q 824 118 857 151 q 755 58 792 84 q 595 0 673 0 q 462 59 495 0 q 451 108 451 80 q 287 10 394 38 q 210 1 251 1 q 134 14 168 1 q 75 51 100 27 q 25 183 25 101 q 105 375 25 277 q 305 535 183 473 q 609 613 435 601 q 680 505 681 605 q 367 438 467 505 q 287 356 316 400 q 259 269 259 311 q 310 216 244 216 q 503 335 406 216 q 582 453 537 377 q 656 576 627 529 q 715 674 685 624 q 773 769 745 724 q 857 904 841 881 q 915 937 882 937 q 971 910 954 937 q 832 661 897 792 q 743 469 768 529 q 686 273 686 332 q 727 215 686 215 "},",":{"x_min":-16.28125,"x_max":439.484375,"ha":562,"o":"m 181 -10 q 162 42 162 10 q 175 96 162 73 q 210 137 188 120 q 317 174 257 174 q 408 146 377 174 q 439 77 439 118 q 420 0 439 37 q 368 -73 400 -37 q 295 -140 336 -109 q 210 -194 254 -171 q 46 -244 115 -244 q -6 -195 21 -244 q -16 -173 -13 -183 q 150 -49 85 -112 q 181 -10 173 -27 "},"Y":{"x_min":-20.34375,"x_max":1154.328125,"ha":860,"o":"m 146 906 q 121 963 109 925 q 181 1026 132 999 q 305 1057 236 1057 q 428 1022 373 1057 q 524 925 482 988 q 632 583 609 796 q 705 692 668 637 q 780 799 742 747 q 857 899 818 851 q 936 986 896 946 q 1106 1101 1024 1070 q 1113 1102 1109 1102 q 1122 1101 1117 1102 q 1134 1093 1127 1099 q 1154 1066 1150 1081 q 872 698 999 962 q 802 544 836 622 q 734 390 768 467 q 665 244 701 314 q 590 115 630 174 q 502 12 550 56 q 272 -80 401 -80 q 48 48 133 -80 q -8 172 3 118 q -20 242 -20 227 q -14 264 -20 258 q 0 276 -8 270 q 33 290 13 285 q 102 225 52 253 q 209 193 155 193 q 404 290 303 193 q 468 621 468 440 q 429 854 471 756 q 289 963 376 963 q 146 906 203 963 "},"E":{"x_min":-67.828125,"x_max":941.375,"ha":856,"o":"m 693 309 q 726 267 726 279 q 666 147 726 211 q 401 -6 571 44 q 284 -18 352 -18 q 147 1 216 -18 q 29 56 78 21 q -67 253 -67 130 q 92 557 -67 438 q 415 685 240 667 q 328 841 328 745 q 485 1018 328 935 q 769 1068 636 1079 q 928 980 888 1049 q 941 931 941 957 q 934 881 941 904 q 914 838 927 857 q 848 796 886 796 q 792 823 824 796 q 779 834 784 830 q 809 918 809 870 q 744 975 790 967 q 604 948 672 971 q 484 853 484 910 q 626 701 459 765 q 762 662 685 678 q 728 554 736 564 q 716 545 720 544 q 522 579 619 579 q 272 501 366 579 q 195 349 195 439 q 253 244 195 284 q 411 202 313 202 q 693 309 567 217 "},"y":{"x_min":-83.421875,"x_max":872.875,"ha":718,"o":"m 434 111 q 221 17 326 17 q 105 59 151 17 q 54 186 54 104 q 120 384 54 280 q 256 538 176 472 q 368 600 330 600 q 424 574 392 600 q 344 484 379 539 q 279 324 279 378 q 322 218 261 218 q 472 306 385 218 q 585 501 548 396 q 594 585 590 538 q 685 583 661 611 q 694 547 694 572 q 688 483 694 522 q 670 394 682 444 q 594 193 644 289 q 788 320 691 220 q 839 382 818 350 q 872 338 872 365 q 856 288 872 327 q 803 198 840 249 q 721 108 766 147 q 518 8 630 29 q 245 -307 387 -231 q 147 -335 193 -335 q 60 -322 100 -335 q -11 -284 20 -308 q -83 -153 -83 -229 q -63 -93 -83 -124 q 14 -18 -27 -35 q 149 -84 93 -71 q 200 -90 173 -90 q 258 -73 227 -90 q 320 -28 288 -57 q 434 111 386 33 "},"\"":{"x_min":271.296875,"x_max":770.46875,"ha":721,"o":"m 542 687 q 564 776 552 712 q 586 875 577 841 q 610 937 595 910 q 696 998 642 998 q 750 975 730 998 q 770 924 770 953 q 759 866 770 894 q 730 810 748 838 q 691 756 712 782 q 649 710 670 730 q 585 666 603 666 q 560 675 574 666 q 542 687 545 684 m 378 710 q 340 678 357 690 q 316 666 322 666 q 304 668 310 666 q 293 673 299 670 q 271 687 277 681 q 293 776 280 712 q 315 875 305 841 q 339 937 324 910 q 425 998 371 998 q 479 975 459 998 q 499 924 499 953 q 487 866 499 894 q 459 810 476 838 q 420 756 441 782 q 378 710 398 730 "},"g":{"x_min":-62.390625,"x_max":900,"ha":745,"o":"m 658 592 q 725 620 687 620 q 763 607 748 620 q 625 288 696 500 q 592 181 605 230 q 803 295 704 188 q 858 363 835 328 q 900 338 900 365 q 883 288 900 327 q 828 200 867 250 q 741 111 789 149 q 528 10 646 35 q 389 -237 464 -153 q 170 -339 297 -339 q 10 -286 79 -339 q -62 -149 -62 -230 q -29 -81 -62 -115 q 40 -38 3 -46 q 161 -99 69 -75 q 207 -105 185 -105 q 255 -89 229 -105 q 307 -46 281 -73 q 407 101 354 6 q 191 0 309 0 q 73 50 120 0 q 25 183 25 102 q 107 384 25 286 q 313 539 185 479 q 586 600 445 600 q 658 592 634 600 m 244 293 q 309 215 244 215 q 556 430 403 215 q 587 474 567 444 q 613 521 595 489 q 354 449 449 507 q 244 293 244 388 "},"\u0006":{"x_min":0,"x_max":0,"ha":0},"\u0007":{"x_min":0,"x_max":0,"ha":0},"e":{"x_min":33.90625,"x_max":799.625,"ha":645,"o":"m 303 265 q 476 202 337 202 q 635 242 562 202 q 763 364 708 281 q 799 338 799 365 q 763 250 799 307 q 695 158 727 193 q 624 92 663 122 q 541 40 585 62 q 337 -6 444 -6 q 56 112 121 -6 q 33 211 33 155 q 53 314 33 267 q 106 403 72 361 q 187 482 140 446 q 288 543 233 518 q 526 600 405 600 q 647 545 614 600 q 658 494 658 526 q 642 432 658 463 q 599 377 626 402 q 536 334 572 352 q 459 301 500 315 q 303 265 387 277 m 284 345 q 434 394 371 356 q 501 476 499 434 q 452 517 502 517 q 337 465 387 517 q 284 345 290 405 "},"\u0012":{"x_min":0,"x_max":0,"ha":0},"J":{"x_min":-213.640625,"x_max":658.546875,"ha":604,"o":"m 147 790 q 169 745 151 767 q 107 715 143 715 q 24 749 61 712 q -9 824 -9 792 q 11 885 -9 855 q 67 941 32 915 q 148 988 102 967 q 246 1024 195 1009 q 430 1056 351 1056 q 550 1043 509 1056 q 615 1006 590 1031 q 658 860 658 959 q 642 669 658 761 q 596 480 626 576 q 526 289 567 384 q 437 108 486 194 q 331 -52 387 21 q 216 -181 276 -126 q -27 -297 88 -297 q -160 -246 -107 -297 q -213 -134 -213 -197 q -192 -19 -213 -71 q -132 79 -170 32 q -41 167 -94 126 q 72 238 10 207 q 345 311 204 302 q 538 725 489 527 q 557 840 555 794 q 529 914 559 887 q 434 942 499 942 q 253 908 348 942 q 147 790 147 860 m 19 51 q 47 21 19 21 q 215 142 106 21 q 284 225 249 179 q 88 150 162 203 q 19 51 19 101 "},"|":{"x_min":131.578125,"x_max":751.46875,"ha":689,"o":"m 695 1093 q 751 1062 751 1075 q 660 748 751 1010 q 400 95 534 384 q 252 -141 289 -141 q 201 -126 232 -141 q 131 -82 144 -99 q 444 491 210 -12 q 695 1093 666 964 "},"^":{"x_min":-141.078125,"x_max":436.78125,"ha":337,"o":"m 68 290 q -27 235 4 250 q -70 220 -59 220 q -90 225 -80 220 q -110 239 -100 231 q -141 271 -134 258 q 0 381 -80 313 q 113 482 80 449 q 203 591 191 556 q 263 577 253 585 q 374 349 299 471 q 436 271 411 288 q 407 234 425 247 q 375 221 389 221 q 337 236 362 221 q 286 275 311 251 q 198 384 239 319 q 68 290 132 330 "},"q":{"x_min":25.765625,"x_max":900.109375,"ha":741,"o":"m 330 50 q 191 0 265 0 q 73 50 120 0 q 25 183 25 102 q 107 384 25 286 q 307 544 180 484 q 581 606 440 606 q 681 567 664 600 q 729 603 715 601 q 748 606 742 606 q 763 604 754 606 q 798 585 787 601 q 648 302 739 505 q 602 191 620 239 q 779 302 718 212 q 833 368 811 334 q 900 338 902 376 q 884 289 900 327 q 829 201 868 250 q 743 112 790 151 q 533 10 648 36 q 457 -311 459 -202 q 411 -338 457 -338 q 298 -295 337 -338 q 260 -177 260 -251 q 330 50 260 -96 m 244 293 q 309 215 244 215 q 516 377 385 215 q 574 446 550 419 q 623 508 590 472 q 617 508 621 508 q 358 463 474 533 q 274 385 303 430 q 244 293 244 340 "},"b":{"x_min":-29.15625,"x_max":821.328125,"ha":667,"o":"m 279 546 q 456 600 370 600 q 628 495 593 600 q 639 416 639 463 q 571 229 639 313 q 683 276 634 238 q 790 363 732 314 q 821 338 821 365 q 814 311 821 327 q 188 0 685 0 l 187 0 q 35 52 95 0 q -29 217 -29 111 q 208 688 -29 347 q 379 914 308 833 q 432 937 399 937 q 486 910 469 937 q 279 546 346 691 m 202 347 q 193 275 193 304 q 210 226 193 246 q 256 206 228 206 q 314 216 284 206 q 370 242 343 225 q 423 282 398 259 q 467 331 448 305 q 508 439 508 388 q 481 474 497 457 q 420 502 454 502 q 352 488 387 502 q 287 451 318 474 q 202 347 232 416 "},"\u0001":{"x_min":0,"x_max":0,"ha":0},"z":{"x_min":0,"x_max":777.25,"ha":623,"o":"m 223 78 q 80 0 117 0 q 18 43 41 0 q 0 127 0 81 q 13 216 0 174 q 50 293 27 259 q 158 369 101 369 q 226 344 179 369 q 297 306 273 318 q 530 505 509 437 q 491 510 514 510 q 451 510 467 510 q 404 506 434 510 q 345 498 375 503 q 238 474 280 486 q 228 514 228 489 q 249 581 231 576 q 423 603 341 603 q 625 573 610 603 q 634 528 634 555 q 421 244 634 446 q 510 217 472 217 q 576 230 549 217 q 631 263 603 242 q 717 356 686 304 q 768 361 759 373 q 777 339 777 348 q 768 307 777 329 q 740 253 759 286 q 694 185 720 220 q 635 118 668 151 q 565 58 602 84 q 401 0 484 0 q 223 78 318 0 "},"w":{"x_min":70.53125,"x_max":1289.296875,"ha":1135,"o":"m 505 153 q 202 -15 326 -15 q 104 59 143 -15 q 70 205 70 126 q 150 419 70 299 q 301 583 219 522 q 345 600 324 600 l 345 601 q 402 579 366 601 q 299 357 330 492 q 293 295 293 321 q 333 215 297 215 q 406 239 361 215 q 499 308 451 264 q 541 512 510 419 q 559 549 550 540 q 580 565 567 557 q 606 580 592 573 q 653 597 638 597 q 676 589 667 597 q 693 570 686 581 q 710 522 710 545 q 656 368 710 463 q 706 226 669 263 q 735 215 718 215 q 835 278 771 215 q 834 287 834 283 l 834 297 q 845 420 834 358 q 866 519 859 505 q 885 549 873 533 q 912 580 896 565 q 975 615 949 615 q 1012 603 1002 615 q 1029 572 1023 592 q 1039 471 1039 539 q 1002 318 1039 402 q 1075 240 1035 248 q 1201 317 1131 240 q 1240 368 1222 340 q 1289 338 1289 365 q 1223 208 1289 299 q 1093 92 1159 122 q 1049 82 1070 82 q 893 141 953 82 q 709 -4 804 31 q 646 -15 677 -15 q 591 0 615 -15 q 550 41 567 15 q 505 153 518 88 "},"$":{"x_min":-66.46875,"x_max":805.046875,"ha":667,"o":"m 214 2 q 88 -172 119 -172 q 4 -113 48 -172 q 105 32 33 -88 q -20 151 25 71 q -66 343 -66 231 q -35 370 -66 357 q -22 375 -28 373 q 66 269 1 314 q 204 215 127 227 q 360 531 279 358 q 294 602 311 577 q 259 700 259 652 q 283 786 259 748 q 345 853 306 824 q 539 929 425 913 q 600 1093 591 1054 q 656 1063 656 1075 q 621 933 656 1034 q 733 911 693 930 q 789 874 773 891 q 805 841 805 857 q 797 813 805 824 q 777 792 789 802 q 730 766 756 775 q 636 838 705 812 q 592 851 615 847 q 491 597 551 741 q 611 496 579 534 q 677 340 677 419 q 615 163 677 244 q 459 43 558 88 q 257 0 364 0 q 214 2 234 0 m 417 653 q 505 847 476 782 q 381 773 413 827 q 370 729 370 752 q 417 653 370 693 m 320 215 q 459 313 427 234 q 470 370 470 341 q 432 461 470 417 q 320 215 364 305 "},"™":{"x_min":196.6875,"x_max":1003.09375,"ha":1098,"o":"m 329 1002 l 196 1002 l 196 1077 l 541 1077 l 541 1002 l 408 1002 l 408 689 l 329 689 l 329 1002 m 599 1076 l 635 1076 l 784 906 l 933 1076 l 970 1076 l 1003 689 l 925 689 l 904 933 l 792 809 l 772 809 l 665 930 l 646 689 l 569 689 l 599 1076 "},"ȷ":{"x_min":-220.421875,"x_max":506.625,"ha":332,"o":"m 121 6 q 82 -140 99 -76 q 43 -248 64 -204 q -7 -316 21 -293 q -73 -339 -37 -339 q -132 -330 -110 -339 q -172 -310 -155 -322 q -220 -254 -208 -285 q 50 221 -167 -212 q 228 564 172 465 q 288 605 251 605 q 336 591 309 605 q 169 174 236 394 q 417 298 301 198 q 476 363 453 329 q 506 338 506 365 q 490 287 506 327 q 432 195 473 247 q 341 104 392 143 q 121 6 242 27 "},"\\":{"x_min":176.34375,"x_max":492.390625,"ha":689,"o":"m 176 1119 q 226 1129 206 1129 q 382 571 267 1129 q 486 -31 460 191 q 492 -98 492 -79 q 485 -129 492 -118 q 463 -149 479 -141 q 355 -167 432 -166 q 356 -123 356 -149 q 353 -42 356 -96 q 341 101 350 11 q 319 294 332 190 q 291 501 306 397 q 259 706 276 606 q 227 889 243 806 q 176 1119 193 1072 "},"\u0019":{"x_min":0,"x_max":0,"ha":0},"~":{"x_min":-67.828125,"x_max":552.75,"ha":532,"o":"m 499 494 q 552 446 552 463 q 544 409 552 430 q 522 369 536 389 q 488 330 507 349 q 446 297 469 311 q 358 264 397 264 q 297 273 319 264 q 257 297 274 282 q 225 327 240 311 q 198 357 211 343 q 137 389 166 389 q -15 306 70 389 q -67 366 -67 349 q -35 422 -67 382 q 27 485 -3 462 q 164 537 94 537 q 247 519 214 537 q 298 489 280 501 q 332 466 315 477 q 411 441 371 441 q 499 494 451 441 "},"-":{"x_min":-62.390625,"x_max":405.578125,"ha":360,"o":"m -44 446 q 150 427 63 427 q 348 435 301 427 q 400 438 395 442 q 405 419 405 433 q 388 386 405 404 q 342 353 370 368 q 276 325 313 337 q 200 303 239 312 q 61 285 118 285 q -56 345 -35 285 q -62 375 -62 361 q -44 446 -62 415 "},"Q":{"x_min":73.25,"x_max":1230.96875,"ha":1131,"o":"m 666 -30 q 463 -77 556 -77 q 301 -55 370 -77 q 181 9 231 -33 q 73 268 73 100 q 184 633 73 444 q 473 942 296 822 q 868 1072 665 1072 q 1060 1017 992 1072 q 1125 881 1125 964 q 890 504 1125 691 q 691 381 796 429 q 752 219 699 323 q 949 379 863 278 q 1041 568 1034 481 q 1087 539 1070 570 q 1091 495 1091 530 q 1072 399 1091 460 q 1020 280 1053 338 q 838 73 952 164 q 1133 -166 1003 -166 q 1213 -148 1172 -166 q 1230 -179 1230 -168 q 1222 -202 1230 -189 q 1189 -238 1213 -215 q 1133 -281 1165 -261 q 976 -327 1058 -327 q 666 -30 779 -327 m 609 171 q 579 404 579 314 q 886 602 758 476 q 1020 865 1020 734 q 930 988 1020 957 q 846 998 901 998 q 724 976 791 998 q 598 914 656 954 q 494 817 541 874 q 415 693 448 761 q 347 387 347 553 q 406 223 347 277 q 571 168 465 168 q 609 171 590 168 "},"D":{"x_min":37.3125,"x_max":1301.515625,"ha":1243,"o":"m 739 1077 q 1301 665 1301 1077 q 1207 348 1301 505 q 948 88 1110 187 q 556 -18 770 -18 q 225 70 368 -18 q 37 341 69 168 q 37 352 37 345 q 40 365 37 358 q 50 379 42 373 q 89 396 63 390 q 280 258 156 304 q 400 424 325 316 q 519 592 476 531 q 605 710 562 653 q 769 900 700 836 q 830 901 789 920 q 848 890 841 896 q 741 740 796 837 q 651 578 686 644 q 582 448 616 512 q 455 221 497 286 q 542 218 488 218 q 672 241 597 218 q 814 304 746 264 q 940 396 882 343 q 1041 510 999 449 q 1133 758 1133 638 q 723 1005 1133 1005 q 472 959 588 1005 q 339 823 339 905 q 396 694 339 746 q 298 628 335 628 q 225 680 257 628 q 194 789 194 732 q 219 888 194 847 q 287 960 244 929 q 384 1014 329 992 q 500 1049 440 1036 q 739 1077 616 1077 "},"M":{"x_min":-88.84375,"x_max":1635.1875,"ha":1567,"o":"m 714 942 q 590 967 660 967 q 413 916 486 963 q 318 765 319 849 q 377 617 318 691 q 297 557 352 581 q 266 550 282 550 q 230 560 250 550 q 195 587 210 569 q 160 682 160 627 q 179 786 160 738 q 233 874 199 833 q 312 948 267 915 q 408 1006 357 982 q 616 1056 514 1056 q 785 1019 717 1056 q 942 636 942 934 q 939 469 953 579 q 1375 839 1043 567 q 1445 899 1420 876 q 1505 1021 1481 992 q 1587 1080 1559 1080 q 1625 1066 1614 1080 q 1635 1040 1635 1052 q 1628 1013 1635 1027 q 1610 984 1620 1000 q 1561 924 1587 953 q 1494 189 1494 560 q 1384 9 1494 57 q 1277 -12 1335 -12 q 1128 29 1190 -12 q 1090 66 1104 45 q 1306 482 1164 128 q 1393 739 1344 592 l 1252 610 q 895 200 1009 355 q 853 61 885 120 q 805 -10 824 7 q 777 -27 786 -27 q 642 10 713 -27 q 571 81 571 48 q 655 223 571 126 q 701 274 678 250 q 810 681 806 502 q 806 754 810 706 q 777 855 803 802 q 501 303 678 569 q 246 40 377 117 q 110 0 178 0 q 0 21 42 0 q -88 169 -88 65 q -54 293 -88 237 q -11 338 -35 324 q 172 273 80 273 q 444 423 309 273 q 657 815 563 555 q 714 942 688 883 "},"C":{"x_min":-80.703125,"x_max":942.734375,"ha":867,"o":"m 746 857 q 779 908 779 886 q 749 932 765 929 q 694 937 733 935 q 576 924 654 939 q 445 877 499 910 q 345 805 391 845 q 229 680 299 766 q 177 462 177 583 q 261 261 177 341 q 489 181 330 181 q 742 248 651 181 q 829 345 792 288 q 889 308 889 335 q 883 282 889 297 q 741 94 828 153 q 342 -36 563 -36 q 100 22 205 -36 q -57 211 -12 85 q -80 351 -80 276 q -61 491 -80 425 q -5 619 -41 557 q 78 739 29 682 q 186 846 127 796 q 310 936 244 895 q 444 1005 375 976 q 746 1066 589 1066 q 925 991 878 1066 q 942 933 942 965 q 932 877 942 900 q 906 836 922 853 q 845 801 874 801 q 763 843 817 801 q 746 857 750 852 "},"[":{"x_min":-78.671875,"x_max":741.296875,"ha":494,"o":"m -78 -158 q 70 311 -78 -16 q 358 854 199 596 q 510 1059 455 1009 q 565 1071 524 1071 q 627 1070 605 1071 q 671 1066 648 1069 q 741 1045 741 1057 q 714 967 741 1024 q 562 975 634 978 q 294 387 484 900 q 149 -75 192 107 q 236 -90 185 -86 q 302 -92 286 -94 q 243 -227 267 -224 q 197 -229 227 -229 q 131 -227 167 -229 q 58 -219 95 -225 q -9 -204 21 -213 q -78 -158 -78 -185 "},"L":{"x_min":-82.75,"x_max":1060.734375,"ha":916,"o":"m 115 26 q 21 9 48 9 q -22 17 -5 9 q -52 40 -39 26 q -82 103 -82 71 q -69 157 -82 134 q -35 196 -56 179 q 54 233 10 233 q 127 229 97 233 q 303 438 213 288 q 379 576 341 503 q 455 718 416 648 q 536 852 494 788 q 627 964 578 915 q 860 1069 733 1069 q 1013 1011 961 1069 q 1060 876 1060 960 q 958 629 1060 744 q 825 531 895 559 q 758 516 789 516 q 708 531 728 516 q 664 627 664 566 q 670 659 664 645 q 704 657 686 657 q 750 663 722 657 q 810 684 777 668 q 868 715 843 699 q 914 758 893 731 q 940 858 940 799 q 886 955 940 928 q 832 965 868 965 q 761 944 796 965 q 699 892 726 923 q 653 812 672 862 q 610 704 634 762 q 562 590 587 646 q 516 475 537 534 q 474 363 495 416 q 429 269 453 310 q 329 165 391 172 q 662 88 502 110 q 721 83 696 83 q 770 88 746 83 q 814 103 794 92 q 878 163 860 125 q 925 126 925 160 q 915 58 925 92 q 887 -6 905 24 q 844 -65 869 -37 q 790 -111 819 -92 q 663 -153 727 -153 q 549 -141 599 -153 q 454 -110 498 -129 q 368 -69 409 -92 q 288 -27 328 -47 q 115 26 192 19 "},"\u0014":{"x_min":0,"x_max":0,"ha":0},"!":{"x_min":122.078125,"x_max":824.046875,"ha":688,"o":"m 225 276 q 359 689 261 509 q 425 790 392 750 q 491 863 459 830 q 561 925 524 897 q 720 990 649 990 q 788 950 756 990 q 824 852 824 906 q 755 762 824 807 q 683 720 724 741 q 599 671 642 698 q 511 609 555 644 q 430 527 467 574 q 321 278 344 421 q 299 276 314 278 q 267 272 283 274 q 225 276 225 267 m 162 -42 q 130 -9 139 -25 q 122 29 122 6 q 138 80 122 53 q 181 127 154 106 q 310 174 243 174 q 408 146 377 174 q 439 73 439 118 q 360 -19 439 23 q 227 -59 288 -59 q 162 -42 185 -59 "},"\u0015":{"x_min":0,"x_max":0,"ha":0}," ":{"x_min":0,"x_max":0,"ha":499},"{":{"x_min":-90.203125,"x_max":676.859375,"ha":219,"o":"m 173 217 q 140 120 155 170 q 116 25 124 70 q 108 -71 108 -20 q 128 -177 108 -123 q 29 -229 88 -212 q -5 -235 10 -235 q -35 -225 -20 -235 q -62 -198 -50 -216 q -90 -94 -90 -155 q -69 26 -90 -32 q -19 144 -48 86 q 40 259 9 202 q 118 472 118 399 q 96 539 118 509 q 109 559 103 549 q 122 578 115 570 q 168 599 139 596 q 228 624 198 602 q 282 681 257 647 q 328 758 307 715 q 372 845 350 801 q 418 931 394 889 q 472 1006 442 973 q 622 1079 537 1079 q 665 1066 653 1079 q 676 1041 676 1053 q 669 1016 676 1030 q 640 1020 650 1020 q 465 874 531 1020 q 429 787 446 832 q 393 698 411 743 q 350 617 374 654 q 222 518 297 534 q 240 459 240 493 q 231 389 240 425 q 207 308 223 352 q 173 217 191 265 "},"X":{"x_min":-288.25,"x_max":928.484375,"ha":808,"o":"m 8 992 q 56 1067 18 1067 q 320 922 211 1067 q 419 753 383 839 q 476 611 455 666 q 664 957 611 790 q 686 1053 683 1009 q 765 1053 725 1060 q 784 1003 784 1041 q 775 919 784 966 q 733 796 766 872 q 529 465 662 636 q 599 298 571 345 q 650 232 627 252 q 700 213 673 213 q 757 226 727 213 q 819 259 788 238 q 897 333 858 274 q 928 275 928 335 q 911 224 928 264 q 863 139 895 184 q 773 48 830 94 q 513 -20 643 -49 q 322 122 382 -20 q 290 217 303 166 q -200 0 33 0 q -288 115 -288 0 q -255 282 -288 185 q -126 255 -185 255 q -21 266 -67 255 q 71 297 24 277 q 257 406 162 336 q 240 545 248 475 q 222 680 233 615 q 193 794 212 746 q 150 887 174 842 q 8 992 99 982 "},"P":{"x_min":-54.9375,"x_max":1047.171875,"ha":931,"o":"m 198 680 q 100 615 137 615 q 27 667 59 615 q -3 776 -3 718 q 24 877 -3 834 q 96 953 51 920 q 199 1014 142 986 q 320 1058 257 1042 q 532 1088 447 1088 q 675 1081 617 1088 q 786 1055 733 1074 q 887 1010 840 1036 q 971 949 935 985 q 1047 754 1047 871 q 971 507 1047 634 q 781 303 897 384 q 531 219 657 219 q 377 241 403 224 q 347 284 354 265 q 334 339 340 302 q 358 495 333 400 q 500 471 408 474 q 630 479 592 467 q 705 512 667 491 q 777 564 742 534 q 839 630 812 594 q 898 782 898 710 q 865 889 898 854 q 780 953 831 925 q 541 1001 683 1001 q 290 952 418 1001 q 170 872 208 916 q 149 809 149 843 q 198 680 141 733 m -54 44 q 26 171 -20 81 q 106 328 73 262 q 176 465 139 395 q 250 603 212 535 q 328 733 288 672 q 503 1001 408 870 q 526 1005 516 1005 q 560 1001 536 1005 q 605 973 588 989 q 390 546 493 832 q 340 385 364 465 q 293 230 316 305 q 248 99 270 155 q 162 -26 200 -26 q -25 22 42 -26 q -54 44 -42 34 "},"#":{"x_min":-75.28125,"x_max":866.765625,"ha":690,"o":"m 190 251 q 50 -2 82 -2 q -75 23 -6 -2 q 50 258 -41 73 q -46 284 -39 265 q -44 389 -59 320 q 108 376 -2 382 q 191 552 150 463 q 54 581 62 559 q 56 676 42 613 q 240 661 98 667 q 359 961 345 900 l 375 955 q 420 929 420 940 q 346 657 420 873 q 578 655 460 655 q 688 961 674 897 l 704 955 q 749 929 749 940 q 685 657 749 869 q 866 667 816 659 l 866 649 q 855 594 866 597 q 656 563 813 577 q 592 370 626 467 q 790 381 733 373 l 790 361 q 778 296 790 300 q 744 287 766 292 q 693 278 722 282 q 554 264 628 269 q 423 -2 456 -2 q 297 23 359 -2 q 408 255 320 59 q 264 251 318 251 q 190 251 210 251 m 537 554 q 307 548 432 548 q 240 371 271 451 q 459 368 345 368 l 537 554 "},"%":{"x_min":-169.5625,"x_max":741.96875,"ha":591,"o":"m -169 33 q 111 290 -92 87 q 604 827 414 588 q 690 941 655 889 q 725 916 708 935 q 741 895 741 898 q 583 648 741 853 q 250 256 442 465 q -37 -22 60 48 q -81 -46 -69 -46 q -106 -36 -92 -46 q -132 -14 -119 -27 q -169 33 -163 14 m 394 578 q 314 528 359 545 q 227 510 268 510 q 161 521 187 510 q 118 550 136 531 q 80 636 80 587 q 96 722 80 685 q 139 792 112 760 q 278 878 196 859 q 298 894 285 892 q 328 897 311 897 q 370 889 345 897 q 419 862 395 882 q 470 759 470 818 q 450 655 470 700 q 394 578 429 610 m 253 639 q 324 678 289 639 q 362 750 358 718 q 328 829 368 809 q 242 774 274 812 q 210 688 210 737 q 253 639 210 639 m 417 402 q 439 427 425 425 q 479 430 457 430 q 532 421 501 430 q 590 388 563 413 q 647 243 647 337 q 564 54 647 133 q 360 -25 480 -25 q 236 14 280 -25 q 191 133 191 55 q 257 293 191 211 q 417 402 323 375 m 349 190 q 396 134 349 134 q 467 172 433 134 q 510 271 510 219 q 484 329 510 307 q 361 244 396 317 q 349 190 349 219 "},"\u0018":{"x_min":0,"x_max":0,"ha":0},"_":{"x_min":-25.765625,"x_max":866.765625,"ha":867,"o":"m 0 84 l 866 84 l 841 0 l -25 0 l 0 84 "},"+":{"x_min":-103.09375,"x_max":500.53125,"ha":406,"o":"m 283 429 q 497 445 419 433 q 500 420 500 434 q 466 361 500 375 q 244 324 404 338 q 141 94 175 151 q 74 68 125 68 q 48 73 54 68 q 63 121 54 94 q 81 180 71 149 q 102 245 91 211 q 124 316 113 280 q 21 314 69 314 q -103 392 -103 314 q -94 446 -103 416 q 157 427 -31 427 q 212 687 217 636 q 231 687 217 687 q 264 685 244 687 q 299 674 284 682 q 330 611 330 658 q 283 429 330 563 "},")":{"x_min":-244.84375,"x_max":451.015625,"ha":290,"o":"m 330 1058 q 371 1070 354 1070 q 409 1054 402 1070 q 445 924 440 987 q 451 814 451 861 q 442 687 451 767 q 406 501 434 607 q 337 294 378 394 q 243 103 295 193 q 130 -52 190 14 q -132 -198 -2 -198 q -211 -149 -173 -198 q -244 -78 -242 -107 q 16 86 -114 -50 q 227 397 137 211 q 358 891 358 663 q 330 1058 358 988 "},"\u0002":{"x_min":0,"x_max":0,"ha":0},"'":{"x_min":271.296875,"x_max":499.171875,"ha":450,"o":"m 378 710 q 340 678 357 690 q 316 666 322 666 q 304 668 310 666 q 293 673 299 670 q 271 687 277 681 q 293 776 280 712 q 315 875 305 841 q 339 937 324 910 q 425 998 371 998 q 479 975 459 998 q 499 924 499 953 q 487 866 499 894 q 459 810 476 838 q 420 756 441 782 q 378 710 398 730 "},"}":{"x_min":-246.1875,"x_max":459.828125,"ha":375,"o":"m 347 841 q 381 923 367 882 q 396 997 396 963 q 374 1077 396 1030 q 398 1089 390 1089 q 414 1089 406 1089 q 434 1074 423 1088 q 459 973 459 1045 q 433 850 459 922 q 392 737 407 777 q 360 612 360 657 q 381 567 360 579 q 365 505 398 534 q 351 496 357 499 q 227 346 279 470 q 184 226 204 291 q 144 94 164 160 q 100 -32 124 29 q 42 -141 75 -94 q -138 -246 -29 -246 q -221 -193 -190 -246 q -246 -119 -244 -156 q -35 94 -123 -95 q 13 206 -10 149 q 62 319 37 263 q 118 423 88 375 q 278 560 188 530 q 259 613 259 582 q 272 681 259 644 q 307 759 286 719 q 347 841 328 800 "},"a":{"x_min":-11.53125,"x_max":915.59375,"ha":761,"o":"m 400 108 q 174 0 307 0 q 38 50 89 0 q -11 183 -11 101 q 69 384 -11 286 q 294 554 148 479 q 545 619 426 615 q 621 602 598 619 q 654 627 640 623 q 677 631 669 631 q 732 623 703 631 q 720 593 729 615 q 703 534 712 572 q 682 461 694 495 q 638 276 638 337 q 676 215 638 215 q 788 260 727 215 q 885 363 843 301 q 915 338 915 365 q 887 267 915 315 q 832 185 859 220 q 773 118 806 151 q 704 58 741 84 q 544 0 622 0 q 411 59 445 0 q 400 91 400 78 q 400 108 400 105 m 206 293 q 272 215 206 215 q 443 332 345 215 q 529 447 495 394 q 582 531 562 501 q 316 450 413 529 q 206 293 225 378 "},"T":{"x_min":-38.65625,"x_max":1070.90625,"ha":746,"o":"m 23 165 q 44 235 23 202 q 101 300 65 267 q 182 365 136 332 q 276 437 227 398 q 374 521 325 476 q 462 622 422 566 q 557 887 543 745 q 292 853 363 872 q 185 813 222 834 q 149 761 149 793 q 154 709 149 729 q 165 673 159 689 q 176 644 171 657 q 181 621 181 631 q 135 581 181 602 q 74 561 93 561 q 37 575 54 561 q 2 611 19 589 q -38 718 -38 666 q -12 805 -38 769 q 56 868 12 841 q 159 912 100 894 q 284 942 218 929 q 421 961 351 954 q 558 974 491 969 q 686 986 626 980 q 792 999 746 991 q 897 1042 891 1015 q 912 1092 902 1069 q 934 1134 921 1116 q 996 1175 963 1175 q 1050 1142 1029 1175 q 1070 1074 1070 1110 q 1054 1018 1070 1039 q 1009 981 1038 996 q 943 950 980 965 q 855 923 906 935 q 679 897 781 910 q 678 850 678 878 q 671 769 678 823 q 653 669 663 716 q 632 563 643 622 q 611 451 621 503 q 574 298 592 343 q 530 212 555 253 q 475 133 505 170 q 411 64 444 96 q 341 8 377 31 q 206 -42 267 -42 q 84 25 147 -42 q 23 165 23 93 "},"\u0016":{"x_min":0,"x_max":0,"ha":0},"N":{"x_min":-79.359375,"x_max":1038.359375,"ha":1046,"o":"m 900 199 q 934 194 915 194 q 978 204 954 194 q 999 181 991 196 q 1007 155 1007 166 q 999 124 1007 145 q 975 83 990 104 q 937 44 959 63 q 889 10 915 25 q 674 -6 790 -46 q 538 124 579 25 q 518 235 518 176 q 536 339 518 295 q 583 427 554 384 q 649 511 612 470 q 725 592 687 552 q 783 653 764 631 q 838 723 802 676 q 891 853 891 797 q 828 943 891 923 q 778 943 810 948 q 711 920 746 937 q 627 865 676 902 q 521 774 577 828 q 427 675 465 720 q 316 495 389 630 q 202 107 202 273 q 204 70 202 88 q 135 24 184 48 q 22 -18 45 -18 q -17 -9 -1 -18 q -47 18 -33 0 q -79 123 -79 59 q -58 257 -79 187 q -6 398 -37 326 q 60 544 24 471 q 127 685 96 617 q 191 915 200 843 q 183 1003 191 981 q 142 1048 166 1044 q 191 1093 144 1093 q 270 1059 238 1093 q 320 902 320 1007 q 307 738 320 794 q 547 964 397 841 q 844 1068 674 1067 q 1024 949 984 1056 q 1038 863 1038 913 q 1024 767 1038 813 q 989 677 1010 721 q 943 590 967 634 q 897 499 918 547 q 848 281 848 390 q 900 199 848 216 "},"=":{"x_min":-90.875,"x_max":558.171875,"ha":455,"o":"m -36 562 q 239 543 31 543 q 555 560 447 543 q 558 543 558 550 q 557 527 558 536 q 552 505 556 518 q 521 470 541 479 q 199 425 441 435 q 77 422 134 422 q -45 504 -45 422 q -36 562 -45 530 m -82 312 q 193 293 -14 293 q 510 311 402 293 q 512 293 512 301 q 512 277 512 286 q 506 256 511 268 q 476 220 497 228 q 31 172 343 172 q -90 255 -90 172 q -82 312 -90 280 "},"":{"x_min":0,"x_max":0,"ha":0},"\u0011":{"x_min":0,"x_max":0,"ha":0},"\u0003":{"x_min":0,"x_max":0,"ha":0},"2":{"x_min":-225.171875,"x_max":750.109375,"ha":704,"o":"m 598 23 q 383 50 521 50 q -86 -18 137 50 q -113 -23 -101 -23 q -140 -16 -125 -23 q -170 9 -155 -10 q -225 113 -225 48 q -205 191 -225 168 q -130 239 -185 215 q -15 294 -74 264 q 113 358 43 324 q 254 430 183 392 q 391 509 324 467 q 507 592 457 550 q 620 769 620 687 q 538 850 620 835 q 485 854 516 854 q 413 846 454 854 q 333 824 371 838 q 247 790 295 811 q 174 750 199 769 q 122 675 122 710 q 168 615 122 639 q 137 583 151 591 q 113 575 122 575 q 81 580 103 575 q 37 596 59 585 q -12 656 -12 622 q 10 722 -12 689 q 75 788 33 754 q 181 847 116 822 q 302 892 246 873 q 527 933 423 933 q 697 878 636 933 q 750 752 750 830 q 472 384 750 575 q 194 226 349 299 q 308 233 261 233 q 387 231 356 233 q 451 227 419 230 q 560 205 516 220 q 621 171 604 191 q 638 124 638 149 q 598 23 638 74 "},"j":{"x_min":-220.421875,"x_max":506.625,"ha":352,"o":"m 419 614 q 361 591 392 599 q 307 583 330 583 q 265 589 283 583 q 233 605 247 594 q 204 662 204 628 q 214 718 204 695 q 246 758 225 741 q 371 793 290 793 q 473 731 448 793 q 480 691 480 713 q 463 649 480 669 q 419 614 445 628 m 121 6 q 82 -140 99 -76 q 43 -248 64 -204 q -7 -316 21 -293 q -73 -339 -37 -339 q -132 -330 -110 -339 q -172 -310 -155 -322 q -220 -254 -208 -285 q 50 221 -167 -212 q 228 564 172 465 q 288 605 251 605 q 336 591 309 605 q 170 183 236 394 q 418 306 302 206 q 480 363 454 337 q 506 338 506 365 q 490 287 506 327 q 432 195 473 247 q 341 104 392 143 q 121 6 242 27 "},"Z":{"x_min":-207.53125,"x_max":981.390625,"ha":827,"o":"m 731 37 q 519 59 665 59 q 37 12 275 59 q -70 4 -34 -1 q -118 10 -105 10 q -147 19 -130 10 q -177 49 -163 27 q -207 167 -207 96 q -183 256 -207 229 q -77 300 -163 277 q 73 354 8 324 q 211 419 139 385 q 357 490 283 453 q 501 568 432 528 q 632 649 571 607 q 739 732 693 690 q 827 863 827 811 q 787 927 827 910 q 667 951 744 946 q 538 952 591 956 q 414 937 486 948 q 316 917 342 927 q 269 884 290 908 q 196 817 196 848 q 242 762 196 786 q 197 735 221 731 q 151 744 174 739 q 109 759 129 749 q 57 823 57 786 q 82 893 57 860 q 147 953 106 927 q 250 1006 189 980 q 343 1038 311 1032 q 642 1064 524 1069 q 816 1044 761 1058 q 908 1005 872 1030 q 981 867 981 954 q 619 457 981 707 q 257 240 459 347 q 700 218 556 263 q 752 65 831 173 q 731 37 740 50 "},"\t":{"x_min":0,"x_max":0,"ha":0},"":{"x_min":40.015625,"x_max":276.71875,"ha":530,"o":"m 174 -73 q 276 -134 276 -73 q 204 -264 276 -191 q 78 -339 132 -339 q 52 -327 63 -339 q 40 -312 41 -316 q 124 -150 71 -277 q 148 -74 145 -99 q 174 -73 162 -73 "},"u":{"x_min":25.765625,"x_max":952.90625,"ha":798,"o":"m 656 296 q 707 216 656 215 q 808 263 746 217 q 904 366 863 304 q 952 338 952 365 q 924 267 952 315 q 870 185 896 220 q 811 118 843 151 q 741 58 778 84 q 581 0 659 0 q 424 84 463 0 q 267 7 349 28 q 203 0 238 0 q 134 12 168 0 q 75 48 100 25 q 25 183 25 97 q 90 383 25 278 q 229 538 145 471 q 354 599 306 599 q 419 553 379 599 q 304 434 352 506 q 250 288 250 353 q 309 215 244 215 q 412 237 375 215 q 531 455 438 343 q 698 596 622 567 q 765 573 722 604 q 780 560 775 565 q 687 425 722 510 q 656 296 656 354 "},"1":{"x_min":-36.625,"x_max":604.296875,"ha":478,"o":"m 45 2 q -14 53 8 20 q -36 129 -36 86 q -17 213 -36 172 q 32 297 0 253 q 105 389 63 341 q 192 484 146 436 q 285 581 238 533 q 375 675 333 629 q 491 823 455 757 q 205 663 381 744 q 103 629 123 629 q 70 644 83 629 q 50 671 58 659 q 28 718 35 691 q 444 891 213 777 q 533 938 492 915 q 596 890 571 931 q 604 858 604 878 q 577 790 604 838 q 510 677 550 741 q 422 534 469 613 q 333 367 375 456 q 233 -19 237 161 q 181 -21 207 -21 q 119 -18 155 -21 q 45 2 82 -14 "},"k":{"x_min":33.90625,"x_max":849.140625,"ha":695,"o":"m 240 27 q 194 0 240 0 q 118 9 149 0 q 69 38 87 18 q 33 168 33 76 q 185 537 33 316 q 348 742 271 662 q 469 859 425 822 q 602 941 563 941 q 653 916 629 941 q 418 613 523 789 q 347 477 379 549 q 585 594 463 566 q 658 602 624 602 q 723 543 723 602 q 653 411 723 486 q 519 305 593 345 q 554 238 534 261 q 605 215 573 215 q 665 227 636 215 q 722 260 694 240 q 818 363 777 301 q 849 338 849 365 q 820 268 849 316 q 765 184 792 219 q 704 114 738 149 q 632 54 670 80 q 461 -6 545 -6 q 320 234 327 -6 q 318 295 319 267 q 464 366 401 326 q 552 425 526 405 q 611 506 611 473 q 594 521 611 521 q 556 514 578 521 q 507 494 535 507 q 450 464 480 482 q 391 425 420 446 q 290 329 325 377 q 240 27 243 179 "},"€":{"x_min":87.484375,"x_max":1012.59375,"ha":900,"o":"m 744 296 q 771 233 771 268 q 705 122 771 191 q 530 12 632 45 q 425 -4 478 -4 q 222 66 289 -4 q 154 262 154 136 q 168 355 154 305 q 87 430 87 366 q 96 485 87 453 q 214 470 125 476 q 228 497 221 484 q 243 524 236 511 q 145 597 143 530 q 153 649 145 619 q 316 632 195 636 q 671 910 478 839 q 794 934 737 934 q 890 923 851 934 q 955 893 928 911 q 1012 813 1012 856 q 975 746 1012 771 q 939 728 959 734 q 789 859 888 859 q 609 791 699 859 q 465 630 527 730 q 746 647 657 633 q 748 624 748 636 q 712 574 748 590 q 412 528 637 541 q 390 466 395 485 q 689 484 574 466 q 691 460 691 472 q 684 428 691 447 q 655 402 676 410 q 373 356 556 367 l 373 354 q 520 215 373 215 q 697 264 611 215 q 744 296 723 278 "},"<":{"x_min":-82.0625,"x_max":545.296875,"ha":256,"o":"m -1 226 q -59 299 -37 264 q -82 356 -82 335 q -60 403 -82 377 q -1 459 -37 429 q 82 524 35 490 q 180 590 130 558 q 281 652 231 623 q 375 704 332 682 q 491 752 467 752 q 536 713 510 752 q 545 699 542 704 q 385 598 495 676 q 239 494 275 520 q 177 444 204 467 q 116 383 115 395 q 130 355 118 371 q 164 318 143 339 q 268 232 204 281 q 415 126 332 183 q 383 73 412 105 q 309 14 331 14 q 249 33 288 14 q 166 82 210 52 q 77 150 122 112 q -1 226 33 187 "},"t":{"x_min":52.21875,"x_max":715.53125,"ha":560,"o":"m 268 0 q 52 183 52 0 q 215 529 52 311 q 183 538 198 534 q 160 545 169 542 q 149 555 151 548 q 148 571 147 562 q 172 625 151 591 l 274 608 q 462 798 375 744 q 499 815 489 815 q 525 810 510 815 q 548 801 539 806 q 578 777 567 791 q 411 580 486 688 q 600 551 566 553 q 552 465 578 470 q 360 497 493 465 q 302 316 302 390 q 432 215 295 215 q 661 367 562 219 q 715 338 715 365 q 687 267 715 314 q 630 185 658 220 q 564 117 601 151 q 481 57 526 84 q 268 0 382 0 "},"W":{"x_min":-16.953125,"x_max":1443.9375,"ha":1364,"o":"m 778 -20 q 624 175 624 -20 q 649 366 624 265 q 259 25 461 114 q 113 -6 187 -6 q -1 69 27 -6 q -10 130 -10 91 q 3 224 -10 168 q 39 338 16 280 q 89 453 61 395 q 146 566 117 511 q 204 673 176 621 q 293 892 293 832 q 219 952 293 952 q 75 881 137 952 q 41 843 53 859 q -16 890 -16 868 q -4 932 -16 912 q 29 969 8 951 q 78 1003 50 987 q 135 1030 105 1018 q 248 1056 198 1056 q 252 1056 250 1056 q 416 966 376 1056 q 436 868 436 923 q 426 754 436 812 q 399 636 416 697 q 367 522 383 575 q 327 362 327 387 q 367 309 327 309 q 522 426 425 309 q 733 734 638 550 q 789 880 756 792 q 832 991 822 967 q 855 1027 841 1014 q 883 1047 868 1040 q 943 1057 907 1059 q 984 1039 980 1055 q 984 999 989 1022 q 940 896 973 952 q 878 432 878 640 q 927 267 878 267 q 1100 395 1011 267 q 1273 712 1210 535 q 1316 923 1316 834 q 1281 1059 1316 1011 q 1345 1092 1309 1083 q 1398 1090 1382 1101 q 1424 1060 1414 1079 q 1443 969 1443 1026 q 1427 834 1443 912 q 1381 675 1411 757 q 1312 509 1352 593 q 1223 348 1271 425 q 1120 204 1174 271 q 1007 86 1065 137 q 778 -20 884 -20 "},"v":{"x_min":59,"x_max":993.53125,"ha":840,"o":"m 231 -24 q 130 55 130 -24 q 140 149 130 91 q 156 260 155 250 q 157 274 157 270 q 129 230 151 265 q 81 189 106 194 q 61 229 63 206 q 59 241 59 235 q 81 298 59 261 q 140 387 103 335 q 213 482 176 440 q 354 578 296 578 q 404 478 404 578 q 391 340 404 419 q 372 233 377 262 q 377 181 367 181 q 520 258 423 176 q 515 295 515 276 q 518 335 515 315 q 525 378 520 355 q 535 425 530 401 q 547 472 541 450 q 567 532 560 520 q 587 560 574 545 q 617 590 600 575 q 685 622 658 622 q 725 608 712 622 q 746 572 738 594 q 763 464 763 526 q 714 323 763 402 q 784 249 749 249 q 909 326 839 249 q 954 373 930 349 q 992 338 998 373 q 927 208 992 299 q 796 92 863 122 q 753 82 774 82 q 571 158 640 82 q 306 -10 432 31 q 231 -24 265 -24 "},">":{"x_min":-271.296875,"x_max":372.34375,"ha":302,"o":"m 191 430 q -56 717 191 477 q -25 745 -42 737 q 0 752 -8 752 q 30 741 9 752 q 80 710 52 729 q 141 663 108 690 q 206 608 173 637 q 268 547 238 578 q 321 488 298 516 q 372 390 372 424 q 134 168 372 328 q -110 27 -9 71 q -154 14 -139 14 q -188 28 -170 14 q -224 60 -207 41 q -271 135 -257 99 q 56 324 -164 184 q 191 430 191 409 "},"s":{"x_min":25.09375,"x_max":834.21875,"ha":680,"o":"m 612 560 q 539 555 575 559 q 541 533 539 548 q 545 484 542 518 q 556 409 549 450 q 575 256 575 294 q 569 193 575 219 q 736 306 669 227 q 786 364 762 334 q 824 359 814 370 q 834 338 834 347 q 818 292 834 328 q 759 200 803 255 q 650 99 715 144 q 296 -2 503 -1 q 241 -4 277 -4 q 162 15 205 -4 q 88 70 118 35 q 25 252 25 141 q 94 356 25 299 q 134 385 114 373 q 327 561 202 486 q 561 636 452 636 q 615 614 600 636 q 612 560 632 591 m 274 253 q 307 242 288 242 q 341 251 325 242 q 372 285 358 261 q 398 340 387 309 q 418 405 409 371 q 442 537 433 462 q 252 417 338 499 q 206 369 226 394 q 274 253 225 291 "},"B":{"x_min":52.90625,"x_max":1205.890625,"ha":1198,"o":"m 981 545 q 1149 318 1149 467 q 1045 98 1149 185 q 666 -18 906 -18 q 335 49 487 -18 q 109 234 187 115 q 52 375 52 320 q 107 411 52 396 q 302 279 162 334 q 417 441 345 336 q 531 605 490 546 q 612 718 571 663 q 769 900 702 838 q 830 901 789 920 q 848 890 841 896 q 696 663 792 833 q 805 649 758 649 q 898 659 852 649 q 982 690 944 670 q 1070 802 1070 735 q 872 980 1070 931 q 718 1000 795 1000 q 573 989 641 1000 q 453 956 505 979 q 336 816 336 907 q 393 687 336 739 q 295 621 331 621 q 216 667 252 621 q 179 769 179 714 q 202 867 179 825 q 265 942 225 909 q 358 999 305 975 q 470 1040 411 1024 q 676 1072 584 1072 q 829 1064 767 1072 q 946 1040 890 1056 q 1049 999 1001 1024 q 1131 942 1096 975 q 1205 773 1205 871 q 1140 632 1205 694 q 981 545 1081 574 m 459 233 q 587 218 538 218 q 670 220 636 218 q 743 233 704 223 q 811 264 783 244 q 874 379 874 306 q 801 496 874 451 q 630 541 735 537 q 585 457 607 499 q 541 375 562 415 q 459 233 495 291 "},"\n":{"x_min":0,"x_max":0,"ha":0},"H":{"x_min":-50.859375,"x_max":1344.921875,"ha":1189,"o":"m 814 137 q 908 489 815 281 q 776 529 841 507 q 649 571 712 552 q 339 42 518 208 q 121 -58 231 -58 q -39 108 -3 -36 q -50 207 -50 152 q -34 324 -50 263 q 11 445 -18 386 q 75 545 41 503 q 166 628 110 588 q 434 714 288 714 q 583 695 498 714 q 698 1072 685 920 q 766 1042 746 1061 q 747 872 781 1027 q 696 666 727 778 q 955 601 882 615 q 1156 984 1057 813 q 1218 1068 1190 1034 q 1247 1078 1226 1078 q 1277 1074 1267 1078 q 1315 1051 1295 1068 q 1145 721 1243 961 q 1093 584 1116 651 q 1144 583 1119 583 q 1197 585 1170 583 q 1164 480 1193 530 q 1122 464 1151 464 q 1058 468 1092 464 q 1033 352 1033 389 q 1035 293 1033 315 q 1046 253 1038 271 q 1105 215 1063 215 q 1247 307 1182 215 q 1296 367 1274 335 q 1344 338 1344 365 q 1311 257 1344 310 q 1247 166 1277 204 q 1181 93 1216 128 q 1109 31 1146 58 q 971 -29 1029 -29 q 814 137 814 -29 m 130 355 q 217 224 119 261 q 434 425 333 269 q 535 598 496 516 q 414 609 483 609 q 310 596 345 609 q 208 541 275 583 q 130 355 130 463 "},"?":{"x_min":122.078125,"x_max":935.953125,"ha":766,"o":"m 453 771 q 461 746 461 756 q 450 724 461 735 q 419 701 438 712 q 327 673 374 673 q 227 765 227 673 q 313 915 227 838 q 512 1036 391 987 q 740 1085 636 1085 q 921 996 875 1085 q 935 928 935 967 q 916 852 935 889 q 865 778 897 815 q 793 705 834 741 q 711 635 753 669 q 629 570 669 601 q 557 511 588 539 q 486 418 486 450 q 523 359 486 375 q 609 380 562 341 q 624 367 619 378 q 616 341 629 356 q 575 308 602 325 q 518 279 548 290 q 408 255 457 255 q 327 264 358 255 q 274 290 297 274 q 223 379 223 327 q 250 472 223 431 q 319 549 276 513 q 417 615 362 584 q 530 676 472 647 q 642 735 588 706 q 740 794 697 764 q 836 934 836 864 q 809 997 836 975 q 740 1020 781 1020 q 654 1011 698 1020 q 568 989 611 1003 q 484 954 524 975 q 415 910 444 934 q 347 804 347 858 q 453 771 347 715 m 162 -42 q 130 -9 139 -25 q 122 29 122 6 q 138 80 122 53 q 181 127 154 106 q 310 174 243 174 q 408 146 377 174 q 439 73 439 118 q 360 -19 439 23 q 227 -59 288 -59 q 162 -42 185 -59 "},"c":{"x_min":41.375,"x_max":730.53125,"ha":585,"o":"m 563 470 q 472 497 512 497 q 400 479 432 497 q 343 432 368 461 q 292 317 292 392 q 333 227 292 260 q 435 200 370 196 q 571 247 501 204 q 694 370 641 290 q 728 312 739 365 q 711 262 728 301 q 651 164 695 222 q 551 61 608 105 q 293 -10 427 -35 q 109 50 176 -10 q 41 225 41 111 q 111 405 41 315 q 278 544 177 490 q 469 600 380 600 q 543 583 517 600 q 590 507 590 555 q 563 470 590 479 "},"\u0010":{"x_min":0,"x_max":0,"ha":0},"&":{"x_min":-59.6875,"x_max":994.28125,"ha":863,"o":"m 472 70 q 236 0 343 0 q 26 67 107 0 q -59 260 -59 138 q 109 480 -59 385 q 302 566 203 532 q 461 621 400 601 q 669 908 540 838 q 756 933 715 933 q 821 925 798 933 q 861 903 845 917 q 895 831 895 874 q 873 754 895 788 q 813 693 851 721 q 622 598 751 647 q 621 552 621 582 q 654 364 621 454 q 819 547 783 452 q 833 544 826 545 q 847 539 841 543 q 860 514 860 533 q 850 465 860 495 q 820 404 839 436 q 714 264 778 333 q 780 232 748 232 q 839 238 813 232 q 889 252 865 243 q 969 293 944 270 q 994 260 994 283 q 973 208 994 245 q 931 143 952 170 q 883 90 910 116 q 820 44 855 64 q 642 0 743 0 q 472 70 541 0 m 630 680 q 811 815 811 749 q 776 863 811 853 q 749 866 767 866 q 711 851 732 866 q 675 812 691 837 q 630 680 643 762 m 280 454 q 219 397 238 423 q 201 332 201 371 q 230 267 201 293 q 305 242 260 242 q 398 251 351 242 q 398 263 398 257 l 398 274 q 432 526 398 394 q 280 454 323 484 "},"−":{"x_min":246.1875,"x_max":849.8125,"ha":974,"o":"m 255 453 q 531 434 322 434 q 847 452 739 434 q 849 435 849 442 q 849 419 849 427 q 843 397 848 410 q 813 361 833 370 q 491 316 733 326 q 368 314 425 314 q 246 396 246 314 q 255 453 246 421 "},"I":{"x_min":-40.015625,"x_max":792.171875,"ha":725,"o":"m 347 911 q 316 878 328 904 q 304 825 304 851 q 330 760 304 798 q 252 718 308 735 q 223 714 237 714 q 193 729 209 714 q 166 763 178 743 q 139 841 139 809 q 160 902 139 873 q 217 955 181 931 q 298 998 252 979 q 393 1029 344 1016 q 591 1056 494 1056 q 792 854 792 1056 q 679 444 792 682 q 406 63 562 196 q 184 -33 292 -33 q 15 36 75 -33 q -40 208 -40 101 q 36 401 -40 301 q 108 463 81 459 q 155 461 134 467 q 138 383 138 413 q 145 329 138 353 q 168 287 153 305 q 255 248 200 248 q 357 281 309 248 q 453 365 406 313 q 544 484 501 418 q 621 619 588 551 q 686 836 686 740 q 609 953 690 934 q 555 958 583 958 q 499 955 526 958 q 445 945 472 952 q 392 928 417 938 q 347 911 366 918 "},"G":{"x_min":-24.421875,"x_max":1096.015625,"ha":1008,"o":"m 1013 608 q 1020 519 1020 573 q 994 397 1020 465 q 924 268 969 330 q 817 152 878 206 q 685 60 756 99 q 375 -23 531 -23 q 4 177 89 -23 q -24 321 -24 244 q -3 465 -24 398 q 54 596 16 532 q 143 732 92 660 q 249 856 195 803 q 374 953 304 909 q 518 1029 444 997 q 832 1074 690 1074 q 1091 952 1091 1074 q 1039 878 1091 918 q 877 952 971 916 q 742 952 794 958 q 651 934 691 947 q 551 896 611 921 q 437 825 491 871 q 343 719 383 779 q 255 470 255 599 q 319 275 255 340 q 503 209 383 209 q 682 252 588 209 q 875 437 836 323 q 898 532 895 482 q 638 469 768 469 q 462 533 508 469 q 446 582 446 555 q 465 631 446 609 q 517 680 484 653 q 590 722 549 708 q 674 747 630 737 q 832 768 763 768 q 973 691 942 749 q 1064 738 1010 717 q 1096 691 1096 712 q 1076 662 1096 685 q 1013 608 1057 640 m 867 630 q 824 675 863 660 q 638 641 724 675 q 596 607 596 625 q 701 582 596 567 q 867 630 805 582 "},"`":{"x_min":371.671875,"x_max":620.578125,"ha":814,"o":"m 596 716 q 569 706 580 706 q 536 715 558 706 q 491 740 514 725 q 446 777 468 756 q 408 820 425 798 q 371 910 371 871 q 411 964 371 935 q 472 991 447 991 q 568 809 499 912 q 620 747 600 760 q 596 716 613 727 "},"(":{"x_min":-76.640625,"x_max":826.75,"ha":195,"o":"m -48 -120 q -68 -74 -61 -102 q -76 10 -76 -47 q -52 157 -76 68 q 11 338 -29 246 q 109 519 52 429 q 230 691 165 609 q 366 843 295 773 q 509 964 438 912 q 778 1073 662 1073 q 822 1028 811 1073 q 826 1005 826 1015 q 555 882 699 1005 q 309 584 422 769 q 149 218 198 403 q 118 24 118 104 q 134 -110 118 -56 q 42 -153 100 -139 q 8 -158 23 -158 q -21 -148 -6 -158 q -48 -120 -36 -139 "},"U":{"x_min":-44.765625,"x_max":1030.90625,"ha":957,"o":"m 873 150 q 897 121 897 134 q 886 88 897 107 q 858 49 876 69 q 812 8 841 29 q 755 -28 783 -11 q 650 -63 697 -63 q 570 -48 602 -63 q 495 98 495 -10 q 499 153 495 124 q 365 46 458 96 q 147 -13 256 -13 q -30 98 11 -13 q -44 188 -44 134 q -19 300 -44 241 q 44 420 6 360 q 120 540 82 480 q 196 663 158 600 q 280 900 279 807 q 219 1015 282 993 q 264 1055 229 1055 q 322 1041 299 1055 q 362 1003 345 1028 q 396 870 396 952 q 314 588 396 767 q 233 331 233 410 q 295 252 233 252 q 562 409 399 252 q 833 775 725 566 q 937 1071 911 931 q 954 1072 946 1072 q 1030 1024 1030 1075 q 965 800 1030 953 q 904 663 936 734 q 843 522 871 592 q 777 269 777 362 q 809 167 777 202 q 873 150 841 131 "},"F":{"x_min":-16.953125,"x_max":989.53125,"ha":834,"o":"m 804 1009 q 845 943 832 986 q 859 846 859 900 q 828 693 859 793 q 969 661 906 682 q 989 616 989 654 q 988 598 989 608 q 794 590 890 588 q 548 180 709 373 q 311 -11 433 43 q 179 -40 248 -40 q 80 -23 110 -40 q 31 20 50 -6 q -6 138 -6 73 q 7 250 -6 203 q 40 336 21 297 q 115 446 75 410 q 192 434 140 469 q 174 347 174 385 q 240 235 174 235 q 535 437 380 242 q 628 582 595 514 q 432 561 479 569 q 400 535 409 549 q 357 596 357 566 q 392 651 357 627 q 675 706 471 706 l 687 706 q 698 705 693 706 q 747 853 747 810 q 723 920 747 896 q 659 959 699 943 q 472 988 583 988 q 224 953 347 988 q 145 867 156 913 q 172 782 145 830 q 69 739 131 739 q 10 788 39 739 q -16 870 -16 834 q 9 938 -16 906 q 80 994 36 970 q 167 1043 124 1018 q 241 1070 209 1067 q 440 1090 358 1090 q 570 1086 522 1090 q 660 1072 617 1081 q 740 1047 703 1062 q 804 1009 777 1031 "},"r":{"x_min":-37.984375,"x_max":734.515625,"ha":580,"o":"m 337 399 q 224 423 281 411 q 87 207 154 302 q 47 200 78 193 q -37 243 -29 227 q 131 461 82 328 q 82 538 82 478 q 130 632 82 575 q 197 687 175 687 q 298 653 263 687 q 311 619 311 640 q 288 548 311 598 q 552 488 393 497 q 512 412 547 441 q 493 403 503 403 q 425 309 445 360 q 419 278 419 293 q 495 215 419 215 q 585 267 523 222 q 681 370 640 309 q 734 338 734 365 q 706 267 734 315 q 651 185 678 220 q 592 118 625 151 q 523 58 560 84 q 362 0 441 0 q 183 82 229 0 q 168 147 168 110 q 183 220 168 184 q 225 290 198 256 q 337 399 279 360 "},":":{"x_min":122.078125,"x_max":551.390625,"ha":562,"o":"m 334 324 q 301 359 310 343 q 292 398 292 376 q 308 443 292 419 q 349 486 325 467 q 443 530 404 530 q 499 510 472 530 q 551 436 551 471 q 499 350 551 394 q 400 305 448 305 q 334 324 357 305 m 162 -42 q 130 -9 139 -25 q 122 29 122 6 q 138 80 122 53 q 181 127 154 106 q 310 174 243 174 q 408 146 377 174 q 439 73 439 118 q 362 -19 439 23 q 227 -59 290 -59 q 162 -42 185 -59 "},"x":{"x_min":44.078125,"x_max":967.828125,"ha":813,"o":"m 554 338 q 701 215 619 215 q 873 306 779 219 q 925 367 902 333 q 967 338 967 365 q 933 254 967 308 q 869 165 899 200 q 805 100 840 130 q 732 47 770 69 q 569 0 649 0 q 444 103 481 0 q 425 172 434 134 q 324 58 362 88 q 187 0 251 0 q 76 50 114 0 q 44 149 44 92 q 52 245 44 206 q 73 313 61 284 q 152 413 108 394 q 195 425 171 422 q 194 394 194 412 q 197 345 194 376 q 208 285 200 315 q 259 217 228 217 q 321 245 286 217 q 400 317 357 274 q 373 454 388 385 q 326 586 357 522 q 402 602 363 602 q 474 493 428 602 q 499 434 487 461 q 634 554 592 521 q 777 626 725 626 l 781 626 q 830 568 817 620 q 831 491 841 521 q 784 453 826 471 q 618 415 701 419 q 554 338 586 382 "},"*":{"x_min":-84.78125,"x_max":478.140625,"ha":337,"o":"m 278 694 q 385 601 344 635 q 358 572 375 581 q 311 563 326 555 q 211 625 271 585 q 139 474 163 503 q 92 454 122 454 q 66 461 76 454 q 118 616 90 521 q -35 556 -17 556 q -61 562 -52 556 q -74 577 -69 569 q -84 612 -84 596 q 99 710 -2 653 q -1 841 -1 794 q 36 899 -1 868 q 59 914 47 908 q 166 798 70 888 q 197 962 197 925 q 214 962 202 962 q 242 960 227 962 q 268 949 258 957 q 287 909 287 935 q 270 805 287 872 q 442 914 403 881 q 478 857 478 880 q 381 752 478 813 q 278 694 335 724 "},"V":{"x_min":-39.34375,"x_max":1093.296875,"ha":969,"o":"m 894 1051 q 976 1088 922 1075 q 1047 1090 1031 1101 q 1073 1060 1063 1079 q 1093 971 1093 1025 q 1075 854 1093 917 q 1028 724 1058 790 q 959 591 998 658 q 875 459 919 524 q 786 334 832 395 q 699 221 741 274 q 621 124 657 168 q 561 50 585 81 q 425 -74 499 -74 q 307 -26 375 -74 q 236 66 236 23 q 288 147 236 101 q 311 166 301 160 q 426 508 381 292 q 451 734 451 631 q 370 927 440 867 q 297 955 338 955 q 223 937 257 955 q 162 887 190 918 q 108 758 120 834 q 178 617 108 683 q 98 557 152 581 q 67 550 82 550 q 31 560 51 550 q -4 587 11 569 q -39 680 -39 627 q -24 778 -39 733 q 15 865 -10 824 q 75 942 41 906 q 149 1003 110 977 q 311 1058 233 1058 q 443 1030 389 1058 q 536 952 497 1001 q 600 836 575 903 q 653 510 653 697 q 646 379 653 444 q 819 619 738 499 q 929 923 929 781 q 894 1051 929 1004 "},"\u001e":{"x_min":0,"x_max":0,"ha":0},"h":{"x_min":33.90625,"x_max":984.78125,"ha":830,"o":"m 181 0 q 33 168 33 0 q 191 535 33 311 q 493 863 330 731 q 644 946 595 946 q 708 913 680 946 q 738 841 738 878 q 722 774 738 804 q 679 715 706 745 q 621 656 653 685 q 539 595 589 626 q 374 514 455 541 q 327 403 345 455 q 636 549 454 500 q 735 564 695 564 q 783 551 775 564 q 786 514 791 537 q 767 461 781 491 q 737 401 752 432 q 700 286 700 320 q 746 215 700 215 q 857 260 796 215 q 954 363 912 301 q 984 338 984 365 q 956 268 984 316 q 901 184 928 219 q 840 114 874 149 q 767 54 806 80 q 600 -6 680 -6 q 487 34 520 -6 q 453 152 453 75 q 564 393 453 250 q 596 438 600 438 q 439 376 541 438 q 274 235 322 304 q 240 27 246 126 q 181 0 240 0 m 418 609 q 558 708 495 652 q 614 788 609 751 q 606 821 614 808 q 585 834 598 834 q 555 819 573 834 q 514 771 538 804 q 418 609 470 710 "},"\u001f":{"x_min":0,"x_max":0,"ha":0},"\u0005":{"x_min":0,"x_max":0,"ha":0},"0":{"x_min":-113.9375,"x_max":767.0625,"ha":751,"o":"m -113 262 q 8 594 -113 414 q 191 793 85 706 q 535 934 365 934 q 706 863 644 934 q 767 663 767 791 q 689 361 767 513 q 475 104 607 202 q 157 -4 328 -4 q -46 66 21 -4 q -113 262 -113 136 m 173 580 q 124 473 141 533 q 108 349 108 413 q 145 250 108 286 q 240 215 182 215 q 347 235 299 215 q 441 289 396 255 q 526 369 486 323 q 596 467 566 415 q 659 683 648 548 q 603 813 652 769 q 504 841 548 841 q 411 819 461 841 q 318 762 360 798 q 240 676 276 725 q 173 580 205 627 "},"\b":{"x_min":0,"x_max":0,"ha":0},".":{"x_min":122.078125,"x_max":439.484375,"ha":562,"o":"m 162 -42 q 130 -9 139 -25 q 122 29 122 6 q 138 80 122 53 q 181 127 154 106 q 310 174 243 174 q 408 146 377 174 q 439 73 439 118 q 362 -19 439 23 q 227 -59 290 -59 q 162 -42 185 -59 "},"\u0013":{"x_min":0,"x_max":0,"ha":0},"@":{"x_min":-71.21875,"x_max":895.25,"ha":830,"o":"m 610 275 q 639 229 610 229 q 698 248 668 229 q 753 299 729 267 q 807 461 807 373 q 750 590 807 545 q 604 631 698 631 q 358 569 489 631 q 140 411 225 505 q 46 195 46 305 q 80 74 46 123 q 328 -33 155 -33 q 448 -19 387 -33 q 454 -65 470 -50 q 413 -92 437 -80 q 364 -113 389 -105 q 251 -130 314 -130 q 129 -111 189 -130 q 25 -56 69 -92 q -71 160 -71 22 q 34 407 -71 281 q 293 604 135 526 q 616 684 457 684 q 874 557 815 684 q 895 460 895 514 q 882 359 895 406 q 847 269 870 311 q 793 192 825 227 q 722 131 760 157 q 544 77 640 77 q 449 119 474 77 q 442 154 441 134 q 280 77 372 77 q 183 113 220 77 q 148 197 148 149 q 163 281 148 244 q 205 352 179 318 q 269 414 232 385 q 351 464 307 443 q 545 510 446 510 q 592 487 579 510 q 598 495 596 491 q 606 505 600 499 q 678 513 623 526 q 610 275 610 349 m 309 279 q 318 240 309 251 q 352 229 327 229 q 405 250 377 229 q 461 303 434 271 q 562 443 500 349 q 376 388 446 440 q 309 279 309 339 "},"f":{"x_min":-5.421875,"x_max":752.828125,"ha":598,"o":"m 74 229 q 31 325 31 284 q 43 356 31 344 q 75 379 56 368 q 170 423 111 401 q 423 788 286 633 q 644 946 564 946 q 701 914 678 946 q 725 837 725 882 q 710 753 725 792 q 671 675 696 713 q 611 603 646 638 q 535 539 576 568 q 357 462 448 479 q 454 292 430 427 q 459 232 459 255 q 459 204 459 209 q 499 200 476 200 q 555 214 522 200 q 618 250 588 227 q 722 363 675 293 q 752 338 752 365 q 727 269 752 318 q 679 188 701 221 q 631 124 657 155 q 576 68 604 92 q 461 13 512 14 q 438 15 451 13 q 321 -230 394 -132 q 139 -339 239 -339 q 27 -260 64 -339 q -5 -74 -5 -191 q 74 229 -5 42 m 625 805 q 602 845 620 843 q 558 824 585 847 q 501 758 531 800 q 393 560 440 671 q 564 671 489 588 q 625 805 631 750 m 324 375 l 304 318 q 368 252 331 278 q 324 375 355 351 m 256 86 q 250 -14 250 35 q 253 -89 250 -64 q 268 -127 256 -115 q 311 -78 289 -127 q 345 33 331 -37 q 256 86 295 52 "},";":{"x_min":-16.28125,"x_max":551.390625,"ha":562,"o":"m 334 324 q 301 359 310 343 q 292 398 292 376 q 308 443 292 419 q 349 486 325 467 q 443 530 404 530 q 499 510 472 530 q 551 436 551 471 q 499 350 551 394 q 400 305 448 305 q 334 324 357 305 m 181 -10 q 162 42 162 10 q 175 96 162 73 q 210 137 188 120 q 317 174 257 174 q 408 146 377 174 q 439 77 439 118 q 420 0 439 37 q 368 -73 400 -37 q 295 -140 336 -109 q 210 -194 254 -171 q 46 -244 115 -244 q -6 -195 21 -244 q -16 -173 -13 -183 q 150 -49 85 -112 q 181 -10 173 -27 "},"i":{"x_min":33.234375,"x_max":613.796875,"ha":454,"o":"m 548 603 q 487 582 520 590 q 432 575 455 575 q 389 581 408 575 q 355 598 370 587 q 322 655 322 621 q 334 711 322 688 q 368 750 346 734 q 484 786 417 786 q 582 758 552 786 q 613 694 613 730 q 594 638 613 658 q 548 603 575 617 m 47 78 q 33 153 33 109 q 52 247 33 198 q 102 346 71 297 q 167 440 132 395 q 239 524 203 484 q 355 604 318 604 q 406 584 384 600 q 434 561 429 568 q 294 352 321 454 q 285 291 285 320 q 307 238 285 261 q 363 215 330 215 q 420 228 396 215 q 472 263 444 242 q 569 366 527 304 q 609 338 609 365 q 580 267 609 316 q 524 184 552 219 q 461 115 497 149 q 383 55 425 82 q 189 -4 289 -4 q 47 78 84 -4 "},"6":{"x_min":-66.46875,"x_max":745.359375,"ha":659,"o":"m 193 530 q 369 554 295 554 q 491 532 442 554 q 569 459 540 510 q 598 339 598 408 q 568 208 598 270 q 485 99 538 147 q 204 -8 367 -8 q -49 149 3 -8 q -66 256 -66 199 q -51 370 -66 314 q -9 484 -36 427 q 55 596 17 541 q 139 702 93 652 q 238 794 185 752 q 348 868 291 837 q 583 934 469 934 q 718 893 666 934 q 745 855 745 873 q 718 800 745 833 q 683 759 692 768 q 558 833 629 833 q 428 803 487 833 q 337 748 369 772 q 193 530 236 649 m 155 396 q 151 353 151 379 q 161 302 151 327 q 189 257 170 277 q 299 215 231 215 q 409 259 364 215 q 453 348 453 301 q 328 437 453 437 q 155 396 249 437 "},"A":{"x_min":-32.5625,"x_max":1434.4375,"ha":1337,"o":"m 954 468 q 681 590 761 565 q 477 185 508 381 q 472 121 472 153 q 478 56 472 89 q 339 -17 411 6 q 298 -26 314 -26 q 266 -18 282 -26 q 236 6 249 -10 q 203 107 203 44 q 226 235 203 170 q 288 365 248 299 q 498 621 364 489 q 387 624 442 624 q 273 610 333 624 q 154 499 179 583 q 149 460 149 484 q 166 398 149 436 q 103 378 152 373 q 22 406 51 383 q -32 501 -32 449 q 109 665 -32 603 q 407 722 217 722 q 593 700 492 722 q 1115 1010 847 912 q 1342 1058 1243 1058 q 1411 1037 1389 1058 q 1434 985 1434 1016 q 1417 906 1434 953 q 1376 802 1401 859 q 1322 679 1351 745 q 1268 545 1293 613 q 1209 275 1209 385 q 1281 194 1209 194 q 1325 204 1301 194 q 1346 181 1338 196 q 1355 155 1355 166 q 1346 124 1355 145 q 1322 83 1338 104 q 1284 44 1306 63 q 1236 10 1262 25 q 1022 -6 1137 -46 q 885 124 926 25 q 865 242 865 176 q 885 365 865 307 q 943 485 906 423 q 1019 594 981 548 q 1101 688 1056 640 q 1187 777 1145 735 q 1255 844 1230 819 q 1319 941 1315 908 q 1300 954 1319 956 q 1034 877 1177 954 q 750 669 874 798 q 973 551 950 582 q 954 468 999 516 "},"n":{"x_min":33.90625,"x_max":952.90625,"ha":803,"o":"m 257 25 q 211 -1 257 -1 q 51 88 99 -1 q 33 164 33 120 q 46 251 33 208 q 81 338 59 295 q 131 421 103 381 q 191 495 160 461 q 319 596 259 567 q 348 603 335 603 q 370 602 362 603 q 404 585 393 600 q 355 476 366 512 q 611 588 459 551 q 708 602 669 602 q 753 587 747 602 q 759 560 759 573 q 756 528 759 548 q 738 470 752 507 q 709 396 724 434 q 671 267 671 301 q 714 207 671 207 q 859 301 783 212 q 906 361 885 329 q 952 338 952 365 q 925 266 952 316 q 871 180 897 217 q 814 109 846 144 q 744 47 782 75 q 583 -12 661 -12 q 463 28 504 -12 q 423 149 423 69 q 531 425 423 266 q 564 474 569 474 q 432 414 512 474 q 297 275 339 349 q 257 25 259 149 "},"O":{"x_min":-110.546875,"x_max":967.140625,"ha":891,"o":"m 967 804 q 910 642 967 712 q 913 626 913 633 q 809 300 899 455 q 579 56 722 149 q 269 -40 431 -40 q -2 52 101 -40 q -110 318 -110 149 q 5 678 -110 503 q 293 949 114 844 q 663 1056 475 1056 q 878 994 796 1056 q 967 804 967 925 m 775 552 q 692 533 735 523 q 649 550 664 533 q 615 597 623 577 q 771 747 741 661 q 788 821 788 782 q 736 914 779 892 q 623 937 693 937 q 495 916 553 937 q 401 869 436 895 q 323 807 365 843 q 227 683 281 771 q 172 459 172 588 q 230 265 172 330 q 393 201 287 201 q 669 321 539 201 q 775 552 750 419 "},"]":{"x_min":-238.0625,"x_max":502.5625,"ha":413,"o":"m -156 -243 q -209 -236 -187 -240 q -234 -226 -230 -231 q -238 -176 -238 -220 q -221 -85 -238 -131 q -93 -84 -138 -90 q 147 375 -35 -8 q 389 973 347 798 q 236 982 354 981 q 257 1053 244 1037 q 281 1071 269 1069 q 315 1074 294 1074 q 361 1075 336 1075 q 411 1074 385 1075 q 502 1051 502 1068 q 483 948 502 1034 q 444 785 464 862 q 399 626 423 708 q 347 459 374 543 q 292 293 320 375 q 237 137 264 211 q 184 -2 209 62 q 136 -116 158 -67 q 69 -236 90 -221 q -4 -249 52 -249 q -93 -248 -61 -249 q -156 -243 -125 -246 "},"3":{"x_min":-125.46875,"x_max":765.71875,"ha":656,"o":"m 574 494 q 663 311 663 419 q 610 152 663 225 q 479 32 556 80 q 40 -75 307 -75 q -100 -12 -56 -75 q -125 62 -125 25 q -120 122 -125 99 q -57 120 -94 120 q 41 126 -20 120 q 169 150 102 132 q 294 193 237 167 q 438 329 411 248 q 444 369 444 347 q 435 416 444 391 q 233 366 324 366 q 184 427 204 366 q 168 508 168 474 q 444 585 307 527 q 604 695 555 632 q 626 754 630 729 q 611 795 622 779 q 581 822 599 812 q 500 839 547 839 q 407 828 453 839 q 320 799 362 817 q 243 757 278 781 q 112 661 137 713 q 104 633 104 644 q 106 614 104 621 q 72 588 87 588 q 45 595 56 588 q 23 613 33 601 q 1 665 1 638 q 30 732 1 692 q 113 804 59 772 q 206 855 168 836 q 343 912 244 874 q 543 933 433 933 q 709 889 653 933 q 765 762 765 844 q 649 554 765 661 q 574 494 615 522 "},"m":{"x_min":33.90625,"x_max":1339.484375,"ha":1185,"o":"m 257 27 q 211 0 257 0 q 94 40 145 0 q 33 175 33 89 q 131 424 33 290 q 319 596 221 548 q 348 603 335 603 q 370 602 362 603 q 404 585 393 600 q 339 434 363 501 q 531 545 414 491 q 752 602 653 602 q 796 548 796 602 q 786 467 796 510 q 1028 590 891 553 q 1111 602 1074 602 q 1162 591 1148 602 q 1178 563 1176 581 q 1172 521 1180 545 q 1153 470 1165 497 q 1126 414 1141 442 q 1098 359 1111 385 q 1068 265 1068 295 q 1128 210 1068 210 q 1260 307 1200 210 q 1299 363 1280 335 q 1333 356 1326 364 q 1339 338 1339 348 q 1331 307 1339 328 q 1305 253 1322 286 q 1266 185 1289 220 q 1213 115 1243 149 q 1146 54 1183 81 q 962 -4 1062 -4 q 817 73 854 -4 q 805 134 805 98 q 819 212 805 171 q 855 292 834 254 q 899 364 876 330 q 937 418 923 397 q 959 454 951 440 q 955 468 966 468 q 843 407 917 465 q 720 290 771 352 q 650 45 650 106 q 651 24 650 33 q 647 10 652 15 q 634 2 642 5 q 558 0 602 -10 q 491 25 514 8 q 437 149 437 63 q 558 425 437 267 q 592 474 596 474 q 441 410 537 471 q 288 264 335 341 q 257 27 259 152 "},"9":{"x_min":-229.234375,"x_max":604.296875,"ha":628,"o":"m 361 425 q 206 383 274 383 q 100 397 138 383 q 37 435 62 411 q -8 560 -8 482 q 96 807 -8 689 q 256 916 163 884 q 361 933 303 933 q 465 913 419 933 q 543 855 512 893 q 604 647 604 781 q 527 344 604 495 q 136 -2 395 84 q -35 -32 44 -32 q -149 -14 -115 -32 q -229 120 -229 25 q -224 164 -229 142 q -218 164 -221 164 q 256 324 54 164 q 361 425 316 372 m 189 552 q 242 545 211 545 q 305 551 273 545 q 368 569 337 558 q 472 622 432 591 q 484 700 484 665 q 476 761 484 735 q 450 807 467 788 q 342 848 413 848 q 190 775 259 848 q 124 636 124 707 q 189 552 124 573 "},"\u0017":{"x_min":0,"x_max":0,"ha":0},"\u0004":{"x_min":0,"x_max":0,"ha":0},"l":{"x_min":33.90625,"x_max":704,"ha":548,"o":"m 579 942 q 661 815 654 942 q 459 456 663 641 q 296 333 381 385 q 364 219 297 234 q 416 215 386 215 q 479 222 445 215 q 548 248 514 230 q 673 363 623 286 q 704 338 704 365 q 689 292 704 327 q 635 203 674 258 q 541 103 596 147 q 261 0 415 0 q 46 151 83 0 q 33 258 33 199 q 51 376 33 316 q 99 494 69 436 q 168 609 128 553 q 249 715 208 666 q 337 806 291 765 q 427 878 383 848 q 579 942 525 942 m 293 451 q 488 623 410 523 q 558 756 559 693 q 543 803 559 786 q 524 810 537 809 q 485 797 510 811 q 435 760 460 784 q 385 697 410 737 q 340 611 360 657 q 293 451 303 540 "},"8":{"x_min":-139.03125,"x_max":746.71875,"ha":686,"o":"m 497 544 q 613 349 613 441 q 482 100 613 200 q 145 0 349 0 q -56 61 23 0 q -139 229 -139 124 q 110 496 -139 385 q 254 555 181 528 q 175 634 196 604 q 134 736 134 689 q 162 819 134 783 q 236 881 189 856 q 480 933 331 933 q 666 885 590 933 q 746 754 746 834 q 592 587 746 661 q 497 544 546 564 m 413 613 q 558 676 520 652 q 608 711 597 699 q 617 744 619 723 q 601 783 615 765 q 564 813 587 802 q 475 837 520 837 q 398 830 430 837 q 339 809 366 823 q 293 754 308 786 q 319 696 293 724 q 413 613 356 657 m 193 410 q 135 357 153 381 q 118 309 118 333 q 126 269 118 285 q 149 240 134 252 q 232 215 181 215 q 316 227 282 215 q 373 260 350 240 q 412 338 421 301 q 379 407 402 375 q 320 471 355 439 q 193 410 233 439 "},"p":{"x_min":-120.046875,"x_max":925.09375,"ha":770,"o":"m 80 -311 q 35 -338 80 -338 q -106 -251 -69 -338 q -120 -180 -120 -219 q -107 -95 -120 -141 q -72 6 -94 -48 q -21 123 -50 61 q 42 245 8 184 q 113 363 76 306 q 187 467 150 420 q 341 602 284 594 q 356 603 349 603 q 370 602 362 603 q 404 585 393 600 q 384 542 392 560 q 363 492 377 524 q 625 598 476 562 q 718 610 674 610 q 763 520 806 602 q 708 433 743 481 q 655 359 672 385 q 613 265 613 297 q 673 210 613 210 q 784 255 726 210 q 883 363 842 301 q 918 356 912 364 q 925 338 925 348 q 916 307 925 328 q 888 253 907 286 q 841 185 868 220 q 778 115 813 149 q 701 54 743 81 q 507 -4 608 -4 q 362 73 399 -4 q 349 134 349 98 q 370 212 349 171 q 420 292 391 254 q 481 364 449 330 q 528 414 513 397 q 550 445 543 431 q 533 459 556 459 q 476 445 511 459 q 403 406 441 430 q 277 303 331 368 q 80 -311 82 -152 "},"4":{"x_min":-72.5625,"x_max":887.109375,"ha":845,"o":"m 854 341 q 646 356 807 356 l 617 356 q 588 356 602 356 q 470 -22 489 148 q 413 -25 436 -25 q 358 -23 389 -25 q 293 -9 326 -21 q 221 92 221 16 q 337 336 221 183 q 112 289 203 318 q 81 283 93 283 q 52 286 68 283 q 17 301 37 288 q -16 334 -1 314 q -43 374 -32 353 q -72 456 -64 414 q 501 803 138 614 q 785 938 668 889 q 849 890 824 931 q 856 861 856 878 q 839 807 856 844 q 793 720 822 769 q 730 613 765 672 q 657 488 694 554 q 887 410 887 478 q 854 341 887 383 m 154 471 q 188 472 166 472 q 253 476 210 473 q 463 486 345 482 q 553 584 508 536 q 638 678 598 633 q 741 814 709 762 q 318 588 614 775 q 154 471 207 518 "},"R":{"x_min":-104.453125,"x_max":1196.390625,"ha":1213,"o":"m -104 194 q -88 315 -104 246 q -40 455 -71 383 q 36 601 -8 528 q 132 744 81 674 q 258 880 184 814 q 411 990 332 946 q 761 1083 579 1083 q 1043 995 929 1083 q 1139 767 1139 909 q 1050 516 1139 632 q 840 353 968 411 q 893 239 876 266 q 963 185 929 185 q 1016 190 996 185 q 1072 217 1035 196 q 1146 301 1120 254 q 1196 271 1196 299 q 1161 186 1196 246 q 1113 107 1127 126 q 1074 66 1100 88 q 1007 16 1049 43 q 818 -42 914 -42 q 617 233 617 -42 q 619 309 617 271 q 472 388 520 318 q 452 449 457 418 q 181 58 295 168 q 45 -14 106 -14 q -63 40 -21 -14 q -104 194 -104 96 m 102 293 q 128 244 105 244 q 377 596 170 244 q 573 896 474 743 q 684 891 595 933 q 701 881 695 885 q 569 681 663 822 q 639 699 612 702 q 681 679 666 697 q 715 637 697 661 q 787 516 745 595 q 935 633 871 550 q 1001 805 1001 719 q 737 954 995 954 q 396 834 547 954 q 194 613 271 737 q 107 351 126 480 q 102 293 102 318 m 641 557 q 611 599 636 599 q 582 589 587 599 q 575 573 577 579 q 575 554 573 567 q 592 522 576 542 q 637 493 607 501 q 641 557 641 533 "},"\r":{"x_min":0,"x_max":0,"ha":695},"o":{"x_min":25.765625,"x_max":859.984375,"ha":705,"o":"m 255 -3 l 242 -4 q 78 48 134 -4 q 25 183 25 98 q 118 406 25 299 q 335 556 208 509 q 357 606 330 586 q 421 617 376 620 q 507 607 466 615 q 589 571 548 598 q 678 412 678 512 q 632 210 678 304 q 817 361 729 230 q 859 338 859 365 q 853 311 859 327 q 484 21 760 92 q 259 -4 385 -4 l 255 -3 m 244 293 q 309 215 244 215 q 421 282 365 215 q 482 415 480 352 q 408 497 479 473 q 255 368 287 463 q 244 293 244 333 "},"5":{"x_min":-105.921875,"x_max":779.953125,"ha":623,"o":"m 361 843 l 326 708 q 575 462 524 619 q 591 352 591 413 q 563 228 591 290 q 484 121 535 166 q 197 24 374 24 q -82 118 -8 24 q -96 150 -96 136 q -103 201 -96 164 q -100 269 -109 239 q -44 375 -82 323 q 151 299 71 299 q 314 338 251 299 q 389 427 378 378 q 297 568 389 494 q 219 625 257 599 q 170 660 181 651 q 202 760 170 685 q 248 864 234 834 q 290 938 280 928 q 322 951 301 948 q 377 956 344 954 q 572 959 431 959 l 652 959 q 779 963 759 959 q 779 950 779 957 q 778 928 779 942 q 766 868 777 914 q 722 826 750 826 q 551 832 661 826 q 409 840 440 838 q 361 843 378 841 "}}}
